# xmcd
#
# Track frame offsets:
#	150
#	11610
#	26792
#	40620
#	54910
#	67062
#	81585
#	95107
#	109665
#	125122
#	137430
#	155350
#
# Disc length: 2270 seconds
#
# Revision: 0
# Processed by: cddbd v1.4PL0 Copyright (c) Steve Scherf et al.
# Submitted via: EasyCDDAExtractor 4.6.9.1
#
DISCID=a108dc0c
DTITLE=Lou Reid and Carolina - Blue Heartache
DYEAR=2000
DGENRE=Bluegrass
TTITLE0=Blue Heartache
TTITLE1=I Stood and Watched You Go
TTITLE2=Letter From My Darling
TTITLE3=Living In Our Country World
TTITLE4=Helen
TTITLE5=Out On The Highway
TTITLE6=Grass Lover
TTITLE7=Take This Hammer
TTITLE8=Memories Don't Die
TTITLE9=Ain't Nobody Gonna Tie Me Down
TTITLE10=The Hobo Song
TTITLE11=I've Been Over You Before
EXTD=
EXTT0=
EXTT1=
EXTT2=
EXTT3=
EXTT4=
EXTT5=
EXTT6=
EXTT7=
EXTT8=
EXTT9=
EXTT10=
EXTT11=
PLAYORDER=
